<?xml version="1.0" encoding="utf-8"?>
<!-- Generator: Adobe Illustrator 24.1.2, SVG Export Plug-In . SVG Version: 6.00 Build 0)  -->
<svg version="1.1" id="Layer_1" xmlns="http://www.w3.org/2000/svg" xmlns:xlink="http://www.w3.org/1999/xlink" x="0px" y="0px"
	 viewBox="0 0 174.1 123.8" style="enable-background:new 0 0 174.1 123.8;" xml:space="preserve">
<style type="text/css">
	.st0{fill:#2D302F;}
	.st1{fill:#F9F1E7;}
	.st2{fill:none;stroke:#F9F1E7;stroke-width:0.35;stroke-linecap:round;stroke-linejoin:round;}
</style>
<g>
	<path class="st0" d="M8.1,0C2.9,11.2,0,23.6,0,36.8c0,48.1,39,87.1,87.1,87.1s87.1-39,87.1-87.1c0-13.1-2.9-25.6-8.1-36.8H8.1z"/>
	<g>
		<g id="Path_5">
			<path class="st1" d="M102.5,46.1c1.8-0.9,3.2-2.5,3.9-4.4c0.4-0.9,0.5-1.9,0.5-2.9c0-1-0.7-1.8-1.5-2.4c-0.8-0.6-1.7-1.1-2.6-1.5
				c-0.9-0.4-1.9-0.7-2.8-0.5c-0.9,0.2-1.8,0.8-2.3,1.6c-0.5,0.8-0.5,1.8-0.7,2.8c-0.1,1-0.3,2-0.4,3c-0.1,1-0.1,2,0.1,2.9
				c0.5,1.9,2.2,3.3,3.8,4.3L102,50c0.5,0.4,0.7,0.8,0.9,1.3c0.4,0.9,0.8,1.9,1.2,2.8c0.5,0.9,0.9,1.9,1.1,2.8
				c0.1,0.2,0.1,0.5,0.2,0.7c0,0.1,0.1,0.2,0.1,0.3c0,0,0,0,0.1,0c0.3-0.2,0.7-0.7,1.1-1l2.1-2.2c0.7-0.7,1.4-1.5,2-2.3
				c0.6-0.8,1.2-1.6,1.5-2.5c0-0.1,0.1-0.2,0.1-0.3l0-0.4l0-0.8l0-1.5l-0.4-12.1c-0.1-2-0.1-4-0.4-6c-0.1-0.5-0.2-1-0.3-1.4
				c-0.2-0.4-0.5-0.9-0.7-1.3c-0.5-0.9-1.1-1.7-1.7-2.4c-2.6-3.1-6.4-4.9-10.3-5.8l0,0c-0.1,0-0.2-0.1-0.2-0.1c0,0-0.1-0.1-0.1-0.1
				C98,17.5,98,17.5,98,17.4c0-0.2-0.1-0.3-0.1-0.5c0-0.3,0-0.7,0-1c0.1-0.7,0.3-1.3,0.7-1.9c0.2-0.3,0.5-0.5,0.9-0.6
				c0.4-0.1,0.7-0.1,1,0c0.7,0.1,1.3,0.4,1.8,0.8c1,0.9,1.6,2.2,1.9,3.4c0.4,1.2,0.7,2.5,1,3.7c0.6,2.5,0.9,5.1,1.1,7.6
				c0.1,1.3,0.3,2.6,0.5,3.8c0.1,0.6,0.3,1.2,0.6,1.8c0.3,0.5,0.7,1.1,1.2,1l0,0l0,0l0,0c0.4,0.1,0.8-0.2,1-0.5
				c0.3-0.3,0.6-0.7,0.8-1.1c0.4-0.8,0.7-1.7,1.1-2.6c0.4-0.9,0.8-1.7,1.3-2.5c0.5-0.8,1-1.6,1.5-2.4c1.9-3.2,5.2-5.8,5.1-9.7
				c0-0.9-0.2-1.8-0.8-2.5c-0.5-0.7-1.4-1.1-2.3-1.4c-1.8-0.5-3.7-0.3-5.6-0.4c-1.9-0.1-3.8-0.3-5.6-0.5l-2.8-0.4
				c-0.9-0.1-1.9-0.3-2.7-0.1l0,0c-0.9,0.2-1.7,0.8-2.1,1.6c-0.5,0.8-0.9,1.7-1.5,2.5c-0.3,0.4-0.7,0.8-1.2,0.9c-0.6,0.2-1,0-1.5,0
				c-1-0.1-1.9-0.2-2.9-0.3c-1.9-0.2-3.9-0.2-5.8-0.1c-1.9,0.1-3.8,0.7-5.8,0.8c-0.3,0-0.5,0-0.8-0.1c-0.1,0-0.3-0.2-0.4-0.3
				c-0.1-0.1-0.1-0.2-0.2-0.4c-0.2-0.5-0.3-0.9-0.5-1.4c-0.3-0.9-0.8-1.8-1.4-2.4c-0.6-0.7-1.5-1.1-2.4-1.2
				c-0.9-0.1-1.9-0.2-2.8-0.1c-1.9,0.1-3.6,1.1-5.3,1.9c-0.4,0.2-0.9,0.4-1.4,0.6c-0.2,0.1-0.5,0.2-0.8,0.2L62.6,14l-2.9,0.2l0,0
				l0,0c-1.3-0.1-2.7,0.1-3.9,0.6l0,0c-0.8,0.4-1.2,1.4-1.3,2.3c-0.1,0.5-0.1,0.9,0,1.4c0.1,0.5,0.2,0.9,0.3,1.4
				c0.3,0.9,0.7,1.8,1.2,2.6c0.2,0.4,0.5,0.8,0.8,1.2c0.3,0.4,0.6,0.8,0.9,1.2c1.2,1.5,2.5,3,3.8,4.5c0.6,0.8,1.2,1.6,1.7,2.5
				c0.2,0.4,0.5,0.8,0.7,1.2c0.3,0.4,0.6,0.8,0.8,0.6c0.3-0.2,0.6-0.6,0.8-1c0.2-0.4,0.4-0.9,0.5-1.3c0.3-0.9,0.5-1.9,0.8-2.8
				l0.3-1.4c0.1-0.5,0.1-1,0.2-1.4c0.2-1,0.4-1.9,0.6-2.9c0.5-1.9,1-3.8,1.8-5.6c0.4-0.9,0.8-1.8,1.4-2.6c0.3-0.4,0.6-0.8,1.1-1.1
				c0.2-0.1,0.5-0.2,0.8-0.3c0.3,0,0.6,0,0.8,0.1c1,0.3,1.9,0.9,2.3,1.9c0.2,0.5,0.3,1,0.2,1.6c0,0.1,0,0.3-0.1,0.4
				c0,0.1-0.1,0.1-0.1,0.2c-0.1,0.1-0.2,0.2-0.2,0.2c-0.3,0.1-0.5,0.2-0.7,0.2c-1.8,0.6-3.7,1.3-5.4,2.2c-1.7,0.9-3.4,2-4.6,3.4
				c-1.3,1.4-1.6,3.4-1.9,5.3c-0.5,3.9-0.2,7.8-0.5,11.7c-0.1,1-0.3,2-0.5,2.9c-0.2,0.9-0.3,1.9-0.3,2.9c0,1.9,0.3,3.9,1.1,5.6
				c0.4,0.9,1,1.6,1.7,2.2c0.7,0.6,1.5,1.3,2.2,2c0.7,0.7,1.3,1.5,1.8,2.4c0.4,0.9,0.7,1.9,0.9,2.9c0,2,2.1,2.9,3.6,4.1
				c1.5,1.3,3,2.5,4.6,3.5c0.8,0.5,1.7,1,2.5,1.3c0.2,0.1,0.4,0.1,0.6,0.1l0.7,0l1.5,0l5.9,0.1c1,0,2,0,2.9,0l0.3,0c0,0,0,0,0,0
				c0,0,0,0.1,0,0.1c0,0,0,0,0,0c0,0-0.1-0.1-0.1-0.1c-0.2-0.2-0.3-0.3-0.5-0.5c-0.4-0.3-0.8-0.6-1.1-0.9c-0.4-0.3-0.8-0.6-1.2-0.8
				c-0.1-0.1-0.2-0.1-0.2-0.1c0,0-0.1,0.1-0.2,0.2l-0.6,0.4c-0.8,0.6-1.6,1.1-2.4,1.7c-0.8,0.5-1.7,1-2.6,1.4
				c-0.9,0.4-1.9,0.8-2.9,0.8c-1.1,0-2-0.5-2.9-1c-0.8-0.5-1.6-1.2-2.4-1.8c-0.7-0.6-1.5-1.2-2.2-2c-0.7-0.7-1.3-1.8-1.1-2.9
				c0.1-0.6,0.3-1,0.5-1.5c0.2-0.5,0.4-0.9,0.6-1.4c0.4-0.9,0.8-1.8,1.2-2.7c0.3-0.9,0.6-1.8,0.8-2.8c0.2-1,0.5-2,0.9-2.9
				c0.5-0.9,1.1-1.7,1.8-2.4c0.8-0.7,1.5-1.3,2.2-1.9c1.5-1.3,3-2.5,4.7-3.6c0.4-0.3,0.9-0.5,1.4-0.7c0.1,0,0.3-0.1,0.5-0.1
				c0.2,0,0.3,0.1,0.5,0.2c0.3,0.1,0.5,0.4,0.7,0.6c0.6,1,0.6,2.1,0.6,3l0,0c-0.1,0.9,0.2,1.9,0.9,2.5l0,0c0.5,0.3,1.1,0.5,1.7,0.7
				l1,0.3c0.2,0.1,0.3,0.1,0.6,0.3c0,0,0.2,0.3,0.1,0.4c-0.1,0.2-0.2,0.1-0.3,0.2c-0.1,0-0.2,0-0.3,0c-1.4,0-2.7-0.1-4-0.1
				c-1.3,0-2.6,0.1-3.8,0.6c-0.6,0.2-1.1,0.6-1.2,1.2c-0.1,0.3-0.1,0.6-0.1,0.9l0,1c0,1.3,0,2.7,0.9,3.5c0.5,0.4,1.1,0.6,1.7,0.6
				c0.3,0,0.6,0.1,1,0c0.2,0,0.3,0,0.5,0c0.1,0,0.2-0.1,0.2-0.2c0.2-0.5,0.1-1.2,0.1-1.8c0-0.6-0.5-1-1.1-1.1
				c-0.6-0.1-1.2,0-1.7,0.4c-0.4,0.4-0.7,1-0.5,1.6l0,0l0,0c0,0.8,0.4,1.6,0.9,2.3c0.5,0.7,1,1.3,1.7,1.8c0.7,0.5,1.4,0.9,2.2,0.9
				c0.8,0.1,1.7-0.1,2.4-0.4c1.5-0.6,2.8-2,3.3-3.5c0.2-0.8,0.1-1.6-0.4-2.3c-0.4-0.7-1.3-0.9-2-0.6l0,0c-1.1,0.8-1.4,3.1,0.4,3
				c0.7,0.1,1.5-0.1,2-0.5c0.3-0.2,0.6-0.5,0.6-0.8c0.1-0.3,0.1-0.7,0.1-1.1c0-0.8,0-1.5-0.1-2.3c-0.1-0.4-0.2-0.7-0.4-1
				c-0.2-0.3-0.5-0.4-0.9-0.5c-0.7-0.1-1.5,0-2.3,0l-2.3,0l-0.2,0l0.2-0.2l0.1,4.9c0,1.6,0,3.3,0,4.9c0,0.4,0,0.8,0.1,1.2
				c0,0.2,0.1,0.4,0.1,0.5c0,0.1,0.2,0.2,0.4,0.3c0.6,0.5,1.3,1,2,1.5c1.3,0.9,2.7,1.8,4.1,2.6c0.7,0.3,1.5,0.7,2.1,0.6
				c0.7-0.2,1.3-0.7,2-1.2c1.2-1,2.4-2.2,3.4-3.4c0.5-0.6,0.9-1.3,0.7-2c-0.2-0.8-0.4-1.6-0.6-2.4l-1.2-4.7l0-0.2l0,0.1
				c-1-1.4-1.9-2.8-2.7-4.3l0,0l0,0c-0.2-0.6-0.7-1.2-1.1-1.8c-0.5-0.6-0.9-1.1-1.5-1.5c-0.3-0.2-0.6-0.4-0.9-0.6
				c-0.3-0.2-0.6-0.3-1-0.4c-0.7-0.2-1.4-0.5-2.1-0.7c-0.7-0.3-1.4-0.6-2-0.9c-0.7-0.3-1.3-0.6-1.9-1.1c-0.6-0.5-1.1-1.1-1.4-1.8
				c-0.3-0.7-0.3-1.5-0.3-2.3l0.1-17.5l0,0l0,0c0.1-0.8,0-1.6-0.1-2.4c-0.1-0.8-0.4-1.6-0.9-2.1c-0.5-0.6-1.3-0.7-2.1-0.8
				c-0.8-0.1-1.6-0.1-2.5-0.1c-1.6,0-3.3,0.2-4.8,0.6c-1.6,0.4-3.1,1.1-4.3,2.2c-0.6,0.5-1.1,1.1-1.6,1.8c-0.2,0.3-0.4,0.7-0.6,1.1
				c-0.2,0.4-0.3,0.7-0.5,1.1c-0.6,1.5-1.1,3.1-1.6,4.7c-0.3,0.8-0.5,1.6-0.7,2.4c0,0.2-0.1,0.4-0.1,0.6c0,0.2,0.1,0.3,0.1,0.2
				c0.1,0,0.3-0.1,0.4-0.3l0.5-0.4c0.6-0.5,1.3-1,2.1-1.3c0.8-0.3,1.7-0.4,2.5-0.2l0,0c1.7,0.2,3.2,1.2,4.1,2.6
				c0.9,1.4,1.2,3.2,0.9,4.8l0,0.2c0,0,0,0,0,0l0,0c-0.1,0.1-0.3,0.2-0.4,0.1c-0.1,0-0.1-0.1-0.2-0.1c-0.1-0.1-0.2-0.1-0.3-0.2
				l-0.5-0.5c-0.3-0.3-0.7-0.6-1-0.8l0,0c-0.7-0.6-1.7-1-2.7-0.9c-1,0.1-1.9,0.4-2.8,0.9c-1.6,1-2.9,3-2.6,4.9
				c0.1,1,0.6,1.9,1.1,2.7c0.6,0.8,1.3,1.5,2,2.2c0.7,0.7,1.5,1.5,1.6,2.7c0.1,0.6,0,1.1-0.1,1.6c-0.1,0.5-0.2,1-0.3,1.5
				c-0.9,4-2,7.9-3.1,11.8l-0.9,2.9c-0.3,1-0.7,1.9-1,2.9c-0.6,1.9-1,3.9-1.3,5.9c-0.3,2-0.3,4,0.2,5.9c0.2,1,0.6,1.9,1.2,2.6
				c0.6,0.7,1.4,1.5,2.1,2.1c0.7,0.7,1.6,1.3,2.4,1.7c0.9,0.5,1.8,0.7,2.8,0.8c1,0.1,2,0.1,3,0.3c1,0.2,2,0.5,3,0.8
				c1.9,0.6,3.8,1.3,5.8,1.9c1,0.3,1.9,0.5,2.9,0.7c1,0.1,1.9,0.1,2.9-0.2c3.8-1.3,7.4-3.3,10.9-5.3c1.8-1,3.5-2,5-3.3
				c1.5-1.2,2.6-3.1,2.7-5c0.2-4-0.1-8.1-1.4-11.9c-0.6-1.9-1.4-3.8-2.5-5.4c-0.1-0.1-0.2-0.1-0.1-0.1c0.1,0,0,0,0,0.1
				c-0.1,0.2-0.2,0.4-0.2,0.6c-0.1,0.5-0.2,1-0.3,1.5c-0.1,1-0.2,2-0.3,3c-0.2,2-0.3,4-0.4,6.1c0,2.1-0.6,4.1-1.5,6
				c-0.9,1.8-2.3,3.5-3.9,4.8c-0.8,0.7-1.7,1.2-2.6,1.7c-0.9,0.5-1.9,0.8-2.8,1.2c-1.9,0.7-3.8,1.4-5.8,1.9c-1,0.2-2.1,0.4-3.1,0.2
				c-1.1-0.1-2-0.6-3-1c-1.8-1-3.5-2.1-5.1-3.5c-0.4-0.4-0.8-0.7-1.1-1c-0.4-0.3-0.8-0.6-1.2-0.9c-0.8-0.6-1.6-1.3-2.3-2.1
				c-1.4-1.6-1.9-3.7-2.1-5.8c-0.2-2,0.1-4.1,0.4-6.1c-0.2,2-0.2,4.1,0,6.1c0.2,2,0.8,4,2.1,5.5c1.2,1.5,3.2,2.4,4.6,3.9
				c1.5,1.3,3.2,2.5,5,3.4c0.9,0.4,1.8,0.9,2.7,1c1,0.1,1.9,0,2.9-0.2c1.9-0.4,3.9-1.2,5.7-1.9c0.9-0.4,1.9-0.7,2.8-1.2
				c0.9-0.5,1.7-1,2.5-1.6c1.6-1.2,2.8-2.8,3.7-4.6c0.9-1.8,1.4-3.7,1.5-5.7c0.1-2,0.2-4.1,0.4-6.1c0.1-1,0.2-2,0.3-3
				c0.1-0.5,0.2-1,0.3-1.5c0.1-0.3,0.1-0.5,0.3-0.8c0.1-0.1,0.2-0.3,0.5-0.4c0.1,0,0.2,0,0.2,0.1l0.1,0.1c0.1,0.1,0.1,0.1,0.2,0.2
				c1.2,1.7,2,3.6,2.6,5.6c1.3,3.9,1.7,8,1.5,12.1c-0.2,2.1-1.3,4.1-2.9,5.4c-1.6,1.4-3.4,2.4-5.1,3.4c-3.5,2-7.1,4-11,5.3
				c-1,0.4-2.1,0.4-3.1,0.2c-1-0.1-2-0.4-3-0.7c-2-0.6-3.9-1.3-5.8-1.9c-1-0.3-1.9-0.6-2.9-0.8c-0.9-0.2-2-0.2-3-0.3
				c-1-0.1-2.1-0.4-3-0.9c-0.9-0.5-1.8-1.1-2.5-1.8c-0.8-0.7-1.5-1.4-2.2-2.2c-0.6-0.9-1.1-1.8-1.3-2.8c-0.5-2-0.5-4.1-0.2-6.2
				c0.3-2,0.7-4,1.3-6c0.3-1,0.7-1.9,1-2.9l0.9-2.9c1.1-3.9,2.2-7.8,3.2-11.7c0.1-0.5,0.2-1,0.3-1.5c0.1-0.5,0.2-1,0.1-1.4
				c-0.1-0.9-0.8-1.7-1.5-2.4c-1.4-1.4-2.9-3-3.2-5.2c-0.1-1.1,0.1-2.1,0.6-3.1c0.5-0.9,1.3-1.7,2.2-2.2c0.9-0.6,1.9-0.9,3-1
				c1.1-0.1,2.1,0.3,2.9,1l0,0c0.4,0.3,0.7,0.6,1.1,0.9l0.5,0.5c0.1,0.1,0.2,0.1,0.2,0.2c0,0,0.1,0,0.1,0.1c0,0-0.1,0-0.1,0l0,0.1
				l0-0.2c0.3-1.5,0-3.2-0.8-4.5c-0.8-1.3-2.3-2.2-3.8-2.4l0,0c-0.8-0.2-1.6-0.1-2.3,0.2c-0.7,0.3-1.4,0.8-2,1.3l-0.5,0.4
				c-0.2,0.1-0.3,0.3-0.6,0.3c-0.2,0-0.3-0.1-0.4-0.2c-0.1-0.1-0.1-0.3-0.1-0.4c0-0.2,0-0.4,0.1-0.7c0.2-0.8,0.4-1.6,0.7-2.4
				c0.5-1.6,1.1-3.1,1.6-4.7c0.1-0.4,0.3-0.8,0.5-1.2c0.2-0.4,0.3-0.8,0.6-1.1c0.4-0.7,1-1.4,1.6-1.9c1.3-1.1,2.9-1.8,4.5-2.3
				c1.6-0.4,3.3-0.6,5-0.6c0.8,0,1.7,0,2.5,0.1c0.4,0,0.8,0.1,1.3,0.2c0.2,0,0.4,0.2,0.6,0.3c0.2,0.1,0.4,0.3,0.5,0.4
				c0.6,0.7,0.9,1.5,1,2.4c0.1,0.8,0.2,1.7,0.1,2.5l0,0l-0.1,17.5c0,0.7,0,1.4,0.3,2.1c0.2,0.6,0.7,1.2,1.3,1.6
				c1.1,0.8,2.5,1.4,3.9,1.9c0.7,0.3,1.4,0.5,2.1,0.7c0.3,0.1,0.7,0.2,1.1,0.4c0.3,0.2,0.7,0.4,0.9,0.6c0.6,0.5,1.1,1,1.6,1.6
				c0.5,0.6,0.9,1.2,1.2,1.9l0,0c0.8,1.5,1.7,2.9,2.6,4.3l0,0c0,0,0,0,0,0.1l0,0.2l1.3,4.7c0.2,0.8,0.5,1.6,0.6,2.4
				c0.1,0.4,0,1-0.1,1.4c-0.2,0.4-0.4,0.8-0.7,1.1c-1,1.3-2.2,2.4-3.5,3.5c-0.7,0.5-1.3,1-2.2,1.4c-0.5,0.2-1,0-1.4-0.1
				c-0.4-0.1-0.8-0.3-1.2-0.5c-1.5-0.8-2.9-1.7-4.2-2.6c-0.7-0.5-1.3-1-2-1.5c-0.2-0.1-0.3-0.2-0.5-0.5c-0.1-0.2-0.1-0.3-0.1-0.4
				c0-0.1,0-0.2,0-0.3c0-0.4,0-0.8-0.1-1.2c0-1.6,0-3.3,0.1-4.9l0.1-4.9c0-0.1,0.1-0.2,0.2-0.2l0.2,0l2.3,0c0.8,0,1.5-0.1,2.3,0.1
				c0.4,0.1,0.8,0.3,1.1,0.6c0.3,0.3,0.4,0.7,0.5,1.1c0.1,0.8,0.1,1.6,0.1,2.3c0,0.4,0,0.8-0.2,1.2c0,0.1-0.1,0.2-0.1,0.3
				c-0.1,0.1-0.1,0.2-0.2,0.2c-0.1,0.2-0.3,0.3-0.4,0.4c-0.7,0.5-1.5,0.7-2.3,0.6c-0.4,0-0.8-0.1-1.2-0.4c-0.2-0.1-0.3-0.3-0.4-0.6
				c0-0.2-0.1-0.4-0.1-0.6c0-0.8,0.4-1.6,1-2.2l0,0l0,0c0.8-0.5,2.1-0.2,2.5,0.7c0.5,0.8,0.7,1.8,0.4,2.6c-0.5,1.7-1.9,3.1-3.5,3.8
				c-0.8,0.3-1.7,0.5-2.6,0.5c-0.9-0.1-1.7-0.5-2.5-1c-0.7-0.5-1.3-1.2-1.8-1.9c-0.5-0.7-0.9-1.6-0.9-2.5l0,0
				c-0.1-0.7,0.1-1.5,0.7-2c0.6-0.5,1.4-0.7,2.1-0.5c0.4,0.1,0.7,0.2,1,0.5c0.1,0.1,0.3,0.3,0.3,0.5c0,0.1,0.1,0.2,0.1,0.3l0,0.2
				c0,0.3,0.1,0.7,0.1,1c0,0.3,0,0.7-0.2,1.1c-0.1,0.2-0.3,0.4-0.6,0.4c-0.2,0-0.3,0-0.5,0c-0.3,0-0.7,0-1,0c-0.7-0.1-1.4-0.3-2-0.7
				c-0.6-0.5-0.9-1.2-1-1.8c-0.1-0.7-0.1-1.4-0.1-2l0-1c0-0.3,0-0.7,0.1-1c0.2-0.8,0.9-1.3,1.5-1.5c1.3-0.5,2.7-0.6,4-0.6
				c1.3,0,2.7,0.1,4,0.1c0.1,0,0.1,0,0.2,0c0,0,0.1,0,0,0.1c-0.1,0.1,0,0.2,0,0.2c0,0-0.2-0.1-0.4-0.1l-1-0.2
				c-0.6-0.2-1.3-0.4-1.9-0.8l0,0l0,0c-0.9-0.7-1.3-1.9-1.2-3l0,0c0-0.9-0.1-2-0.5-2.6c-0.1-0.2-0.3-0.3-0.4-0.4
				C86.4,46,86.4,46,86.2,46c-0.4,0.1-0.8,0.4-1.2,0.6c-1.6,1-3.1,2.3-4.6,3.5c-0.7,0.6-1.5,1.3-2.2,1.9c-0.7,0.6-1.3,1.4-1.7,2.2
				C76,55.2,75.7,56,75.6,57c-0.2,1-0.5,1.9-0.8,2.9c-0.4,0.9-0.8,1.8-1.2,2.7c-0.2,0.4-0.4,0.9-0.6,1.3c-0.2,0.5-0.4,0.9-0.5,1.3
				c-0.2,0.9,0.3,1.7,0.9,2.4c0.6,0.7,1.4,1.3,2.1,2c0.7,0.6,1.5,1.2,2.3,1.8c0.8,0.5,1.7,1,2.6,0.9c0.9,0,1.8-0.3,2.7-0.7
				c0.9-0.4,1.7-0.9,2.6-1.4c0.8-0.5,1.6-1.1,2.4-1.6l0.6-0.4c0.1-0.1,0.2-0.1,0.4-0.2c0.3,0,0.3,0.1,0.4,0.2
				c0.4,0.3,0.8,0.5,1.2,0.8c0.4,0.3,0.8,0.6,1.2,0.9c0.2,0.2,0.4,0.3,0.6,0.5c0,0.1,0.1,0.1,0.1,0.2c0,0,0,0.1,0,0.1
				c0,0,0,0.2,0,0.2c0,0-0.1,0.1-0.2,0.1c-0.2,0-0.3,0-0.4,0.1c-1,0-2,0-2.9,0.1l-5.9,0l-1.5,0l-0.7,0c-0.3,0-0.5,0-0.8-0.1
				c-1-0.3-1.8-0.8-2.7-1.4c-1.7-1.1-3.2-2.3-4.7-3.6c-0.8-0.6-1.6-1.1-2.4-1.8c-0.4-0.3-0.7-0.7-1-1.2c-0.3-0.5-0.3-1-0.4-1.5
				c-0.2-0.9-0.5-1.9-0.9-2.7c-0.4-0.8-1-1.6-1.7-2.3c-0.7-0.7-1.4-1.3-2.1-2c-0.8-0.7-1.4-1.5-1.8-2.4c-0.9-1.8-1.2-3.8-1.1-5.8
				c0-1,0.1-2,0.3-3c0.2-1,0.4-1.9,0.5-2.9c0.3-3.9-0.1-7.8,0.5-11.7c0.1-1,0.3-2,0.6-2.9c0.1-0.5,0.4-1,0.6-1.4
				c0.3-0.4,0.5-0.9,0.9-1.2c1.3-1.5,3-2.6,4.7-3.6c1.7-0.9,3.6-1.6,5.5-2.3l0.7-0.2c0.1,0,0.2-0.2,0.2-0.4c0.1-0.4,0-0.9-0.2-1.3
				c-0.4-0.8-1.2-1.4-2.1-1.7c-0.8-0.4-1.6,0.3-2.2,1.1c-0.6,0.8-1,1.6-1.4,2.5c-0.7,1.8-1.3,3.7-1.7,5.6c-0.2,0.9-0.4,1.9-0.6,2.9
				c-0.1,0.5-0.1,1-0.2,1.4l-0.4,1.4c-0.2,1-0.5,1.9-0.8,2.9c-0.2,0.5-0.3,0.9-0.6,1.4c-0.2,0.4-0.5,0.9-1,1.2
				c-0.1,0.1-0.3,0.1-0.5,0.1c-0.2,0-0.3-0.1-0.4-0.2c-0.2-0.2-0.4-0.4-0.5-0.6c-0.3-0.4-0.5-0.8-0.8-1.3c-0.5-0.8-1-1.7-1.6-2.4
				c-1.2-1.5-2.6-2.9-3.8-4.5c-0.3-0.4-0.6-0.8-0.9-1.2c-0.3-0.4-0.6-0.8-0.8-1.2c-0.5-0.9-0.9-1.8-1.2-2.7c-0.1-0.5-0.3-1-0.3-1.5
				c-0.1-0.5,0-1,0-1.5c0.2-1,0.6-2.1,1.5-2.6c0,0,0,0,0,0c1.3-0.6,2.7-0.8,4.1-0.6l0,0l2.9-0.2l0.7-0.1c0.2,0,0.4-0.1,0.7-0.2
				c0.4-0.2,0.9-0.4,1.3-0.6c1.7-0.8,3.5-1.8,5.5-2c1-0.1,2-0.1,2.9,0.1c1,0.1,2,0.5,2.7,1.3c0.7,0.7,1.1,1.7,1.5,2.6
				c0.2,0.5,0.3,0.9,0.5,1.3c0,0.1,0.1,0.2,0.1,0.3c0.1,0.1,0.1,0.1,0.2,0.1c0.2,0.1,0.4,0.1,0.6,0.1c1.9-0.2,3.8-0.7,5.7-0.8
				c2-0.2,3.9-0.1,5.8,0.1c1,0.1,1.9,0.2,2.9,0.3c0.5,0,1,0.1,1.4,0c0.4-0.1,0.7-0.5,1-0.8c0.6-0.7,1-1.6,1.5-2.5
				c0.5-0.9,1.4-1.6,2.4-1.8l0,0c0.5-0.2,1-0.1,1.5-0.1c0.5,0,0.9,0.1,1.4,0.2l2.8,0.4c1.9,0.3,3.7,0.4,5.6,0.5
				c1.9,0.1,3.8-0.1,5.6,0.4c0.9,0.3,1.9,0.7,2.5,1.5c0.6,0.8,0.9,1.8,0.9,2.8c0,1-0.2,1.9-0.5,2.8c-0.1,0.5-0.3,0.9-0.5,1.3
				c-0.2,0.5-0.5,0.8-0.8,1.2c-1.1,1.5-2.3,3-3.3,4.5c-1.1,1.6-2.1,3.1-2.8,4.8c-0.4,0.9-0.7,1.7-1.1,2.6c-0.2,0.4-0.5,0.8-0.8,1.2
				c-0.3,0.4-0.8,0.7-1.4,0.6l0.1,0l0,0c-0.4,0.1-0.8-0.2-1-0.4c-0.3-0.2-0.4-0.5-0.6-0.8c-0.3-0.6-0.5-1.2-0.7-1.9
				c-0.3-1.3-0.4-2.6-0.6-3.8c-0.3-2.6-0.5-5.1-1.1-7.6c-0.3-1.2-0.6-2.5-1-3.7c-0.3-1.2-0.8-2.4-1.8-3.2c-0.5-0.4-1-0.7-1.6-0.7
				c-0.6-0.1-1.2,0-1.6,0.5c-0.4,0.5-0.5,1.1-0.6,1.7c0,0.3-0.1,0.6,0,0.9c0,0.2,0,0.3,0.1,0.4c0,0.1,0.1,0.3,0.1,0.2l0,0l0,0l0,0
				c3.9,0.9,7.8,2.8,10.5,5.9c0.7,0.8,1.3,1.6,1.8,2.5c0.3,0.4,0.5,0.9,0.7,1.3c0.2,0.5,0.3,1,0.4,1.5c0.3,2,0.3,4,0.4,6.1l0.4,12.1
				l0,1.5l0,0.8l0,0.4c0,0.1,0,0.3-0.1,0.4c-0.4,1-1,1.8-1.6,2.6c-0.6,0.8-1.3,1.5-2,2.3l-2.1,2.2c-0.4,0.4-0.7,0.7-1.1,1.1
				c-0.1,0-0.2,0.1-0.3,0.1c-0.1,0-0.2-0.1-0.3-0.1c-0.1-0.1-0.2-0.3-0.2-0.4c-0.1-0.3-0.1-0.5-0.2-0.7c-0.2-1-0.6-1.9-1.1-2.8
				c-0.4-0.9-0.8-1.9-1.2-2.8c-0.2-0.4-0.5-0.9-0.8-1.1l-1.3-0.8c-0.8-0.6-1.7-1.2-2.4-1.9c-0.7-0.7-1.3-1.6-1.6-2.6
				c-0.3-1-0.2-2.1-0.1-3.1c0.1-1,0.3-2,0.4-3l0.2-1.5c0.1-0.5,0.3-1,0.5-1.5c0.3-0.5,0.7-0.8,1.1-1.1c0.4-0.3,0.9-0.6,1.4-0.7
				c1.1-0.2,2.1,0.1,3,0.5c0.9,0.5,1.8,1,2.6,1.6c0.4,0.3,0.8,0.7,1.1,1.1c0.3,0.4,0.5,1,0.4,1.5c0,1-0.2,2-0.6,3
				C105.9,43.7,104.3,45.3,102.5,46.1z"/>
		</g>
		<g id="Path_6">
			<path class="st1" d="M75.6,37.3c0.6,0.4,1.1,0.9,1.5,1.5c0.5,0.6,0.8,1.2,1,2c0,0.2,0,0.4-0.1,0.6c-0.2,0.2-0.3,0.2-0.5,0.3
				c-0.3,0.2-0.7,0.3-1,0.4c-0.7,0.2-1.4,0.3-2.1,0.4c-0.4,0-0.7,0.1-1.1,0c-0.4,0-0.8-0.1-1.1-0.3c-0.7-0.4-1.2-0.9-1.7-1.4
				c-0.5-0.5-1-1.1-1.3-1.7c0-0.1-0.1-0.2-0.1-0.3c0-0.1,0.1-0.2,0.2-0.2c0.1-0.1,0.3-0.2,0.4-0.4c0.3-0.2,0.6-0.4,0.8-0.6
				c-0.2,0.3-0.6,0.4-0.8,0.7c-0.1,0.1-0.3,0.2-0.4,0.4c-0.1,0.1-0.1,0.1-0.1,0.2c0,0.1,0,0.2,0.1,0.2c0.4,0.6,0.9,1.1,1.4,1.6
				c0.5,0.5,1.1,1,1.7,1.3c0.6,0.3,1.3,0.2,2,0.1c0.7-0.1,1.4-0.2,2.1-0.4c0.3-0.1,0.7-0.2,1-0.3c0.2-0.1,0.3-0.2,0.4-0.2
				c0.1-0.1,0.1-0.2,0.1-0.4c-0.1-0.7-0.4-1.3-0.8-1.9C76.6,38.3,76.1,37.8,75.6,37.3z"/>
		</g>
		<circle class="st2" cx="73.8" cy="39" r="2.3"/>
		<circle class="st2" cx="101.1" cy="39" r="2.3"/>
		<g id="Path_7">
			<path class="st1" d="M96.7,41c0.3-1,0.8-1.8,1.3-2.6c0.5-0.8,1.2-1.5,2.2-1.8c1-0.1,1.9,0.1,2.8,0.4c0.9,0.3,1.7,0.9,2.4,1.5l0,0
				c0,0,0,0,0,0c0.1,0.4,0,0.6-0.1,0.8c-0.1,0.2-0.2,0.4-0.3,0.6c-0.3,0.4-0.5,0.7-0.9,1c-0.6,0.6-1.4,1.2-2.3,1.4
				c-0.5,0.1-0.9,0-1.4,0c-0.4-0.1-0.9-0.1-1.3-0.2c-0.4-0.1-0.9-0.2-1.3-0.4C97.4,41.6,97,41.4,96.7,41z M96.8,41
				c0.5,0.6,1.5,0.7,2.3,1c0.4,0.1,0.9,0.2,1.3,0.2c0.4,0.1,0.9,0.1,1.3,0c0.8-0.2,1.6-0.7,2.2-1.3c0.3-0.3,0.6-0.6,0.8-1
				c0.1-0.2,0.2-0.4,0.3-0.6c0.1-0.2,0.1-0.4,0.1-0.5l0,0c-0.7-0.6-1.4-1.1-2.3-1.5c-0.8-0.3-1.8-0.6-2.7-0.5
				c-0.9,0.2-1.5,0.9-2.1,1.7C97.6,39.3,97.2,40.2,96.8,41z"/>
		</g>
	</g>
	<g>
		<path class="st1" d="M30.1,78.7l3.9,4.9l-1,0.8L30,80.6l-2.5,2l2.9,3.6l-1,0.8l-2.9-3.6L23.1,86L22.3,85L30.1,78.7z"/>
		<path class="st1" d="M37.2,86.8l1,1l-7,7.2l-1-1L37.2,86.8z"/>
		<path class="st1" d="M42,91.4l1.4,1.1l-0.4,9.9l0,0l4.9-6.7l1.1,0.8l-5.9,8.1l-1.4-1l0.3-10l0,0l-4.9,6.7l-1.1-0.8L42,91.4z"/>
		<path class="st1" d="M53.2,99l3.2,1.5c0.6,0.3,1.2,0.6,1.6,1c0.4,0.4,0.7,0.8,1,1.2c0.2,0.4,0.4,0.8,0.5,1.3
			c0.1,0.4,0.1,0.8,0.1,1.2c0,0.4-0.1,0.8-0.2,1.1c-0.1,0.4-0.2,0.7-0.3,1c-0.3,0.6-0.6,1.1-1.1,1.5c-0.5,0.4-1,0.8-1.6,1
			c-0.6,0.2-1.3,0.3-2,0.3c-0.7,0-1.5-0.2-2.3-0.6l-3-1.4L53.2,99z M50.7,107.5l1.6,0.7c0.5,0.2,1,0.4,1.6,0.5
			c0.5,0.1,1,0.1,1.5-0.1c0.5-0.1,0.9-0.3,1.3-0.7c0.4-0.3,0.7-0.8,1-1.3c0.1-0.3,0.2-0.7,0.3-1.1s0.1-0.9,0-1.4
			c-0.1-0.5-0.3-0.9-0.7-1.4s-0.9-0.9-1.6-1.2l-1.8-0.9L50.7,107.5z"/>
		<path class="st1" d="M65.6,104.1l1.3,0.4l-3,9.6l-1.3-0.4L65.6,104.1z"/>
		<path class="st1" d="M71.9,105.9l1.8,0.3l4.2,9l0,0l1.3-8.2l1.3,0.2l-1.5,9.9l-1.7-0.3l-4.3-9l0,0l-1.3,8.2l-1.3-0.2L71.9,105.9z"
			/>
		<path class="st1" d="M94.3,111.6l0.2,4.9c-0.2,0.2-0.5,0.3-0.8,0.4c-0.3,0.1-0.6,0.2-1,0.3c-0.3,0.1-0.7,0.2-1,0.2
			c-0.3,0.1-0.7,0.1-1,0.1c-0.9,0-1.6-0.1-2.3-0.3s-1.3-0.6-1.7-1.1c-0.5-0.5-0.8-1-1.1-1.6c-0.3-0.6-0.4-1.3-0.4-2
			c0-0.7,0.1-1.4,0.3-2.1c0.2-0.7,0.6-1.2,1-1.7c0.4-0.5,1-0.9,1.6-1.2c0.6-0.3,1.3-0.5,2.1-0.5c0.9,0,1.7,0.1,2.3,0.3
			c0.6,0.2,1.1,0.5,1.5,0.9l-0.9,1.1c-0.4-0.4-0.9-0.6-1.3-0.8s-1-0.2-1.5-0.2c-0.6,0-1.1,0.1-1.5,0.4c-0.5,0.2-0.8,0.5-1.2,0.9
			c-0.3,0.4-0.6,0.8-0.7,1.3c-0.2,0.5-0.2,1-0.2,1.6c0,0.6,0.1,1.1,0.4,1.6c0.2,0.5,0.5,0.9,0.9,1.2s0.8,0.6,1.3,0.8
			c0.5,0.2,1,0.3,1.6,0.2c0.5,0,0.9-0.1,1.4-0.2c0.4-0.1,0.8-0.2,1.1-0.4L93,113l-2.2,0.1l0-1.3L94.3,111.6z"/>
		<path class="st1" d="M108.3,104.2l5.9-2.1l0.4,1.2L110,105l1.1,3l4.3-1.6l0.4,1.2l-4.3,1.6l1.5,4.1l-1.3,0.5L108.3,104.2z"/>
		<path class="st1" d="M118.3,100.2l1.2-0.6l4.5,9l-1.2,0.6L118.3,100.2z"/>
		<path class="st1" d="M123.9,97.2l2.9-2c0.6-0.4,1.1-0.7,1.7-0.9s1-0.3,1.5-0.3c0.5,0,0.9,0.1,1.3,0.2s0.8,0.3,1.1,0.5
			c0.3,0.2,0.6,0.5,0.9,0.7c0.3,0.3,0.5,0.5,0.7,0.8c0.4,0.5,0.6,1.1,0.8,1.7c0.1,0.6,0.2,1.3,0.1,1.9s-0.4,1.3-0.8,1.9
			c-0.4,0.6-1,1.2-1.7,1.7l-2.7,1.9L123.9,97.2z M130,103.6l1.4-1c0.5-0.3,0.9-0.7,1.2-1.1c0.3-0.4,0.6-0.9,0.7-1.3
			c0.1-0.5,0.2-1,0.1-1.5s-0.3-1-0.7-1.5c-0.2-0.3-0.4-0.5-0.8-0.8c-0.3-0.3-0.7-0.5-1.2-0.7c-0.5-0.2-1-0.2-1.5-0.1
			s-1.2,0.3-1.9,0.8l-1.7,1.2L130,103.6z"/>
		<path class="st1" d="M145.2,93.2c-0.5,0.5-1.1,1-1.8,1.2c-0.6,0.3-1.3,0.4-1.9,0.4c-0.7,0-1.3-0.1-2-0.4c-0.6-0.3-1.2-0.7-1.8-1.2
			c-0.5-0.5-0.9-1.1-1.2-1.7c-0.3-0.6-0.4-1.3-0.5-1.9s0.1-1.3,0.4-2c0.3-0.6,0.6-1.2,1.2-1.8c0.5-0.5,1.1-1,1.8-1.2
			c0.6-0.3,1.3-0.4,1.9-0.4c0.7,0,1.3,0.1,2,0.4c0.6,0.3,1.2,0.7,1.8,1.2c0.5,0.5,0.9,1.1,1.2,1.7s0.4,1.3,0.5,1.9
			c0,0.7-0.1,1.3-0.4,2C146.1,92,145.7,92.6,145.2,93.2z M144.2,92.3c0.4-0.4,0.7-0.9,0.9-1.3c0.2-0.5,0.2-1,0.2-1.5s-0.2-1-0.4-1.4
			c-0.2-0.5-0.5-0.9-0.9-1.3c-0.4-0.4-0.8-0.7-1.3-0.9s-1-0.3-1.4-0.3c-0.5,0-1,0.1-1.4,0.3c-0.5,0.2-0.9,0.5-1.3,0.9
			c-0.4,0.4-0.7,0.9-0.9,1.3s-0.2,1-0.2,1.5c0,0.5,0.2,1,0.4,1.4c0.2,0.5,0.5,0.9,0.9,1.3s0.8,0.7,1.3,0.9c0.5,0.2,1,0.3,1.4,0.3
			s1-0.1,1.4-0.3C143.4,93,143.8,92.7,144.2,92.3z"/>
	</g>
</g>
</svg>
