<svg xmlns="http://www.w3.org/2000/svg" width="23.705" height="22.401" viewBox="0 0 23.705 22.401">
  <g id="Union_1" data-name="Union 1" transform="translate(-1.148 0.401)" fill="none">
    <path d="M4.253,22a3,3,0,0,1-3-3v-8.58a3.016,3.016,0,0,1,.055-.577,1.971,1.971,0,0,1,.634-2.372L11.792.005a2,2,0,0,1,2.417,0l9.849,7.466a1.971,1.971,0,0,1,.634,2.372,3.016,3.016,0,0,1,.055.577V19a3,3,0,0,1-3,3Z" stroke="none"/>
    <path d="M 21.74669647216797 19.0004997253418 L 21.74640655517578 19.0004997253418 L 21.74624633789062 10.41746997833252 L 21.57234573364258 9.524080276489258 L 21.62682342529297 9.394098281860352 L 13.00004577636719 2.854057312011719 L 4.372291564941406 9.394848823547363 L 4.427685737609863 9.527600288391113 L 4.253705978393555 10.42109966278076 L 4.253405570983887 19.0004997253418 L 21.74669647216797 19.0004997253418 M 21.74669647216797 22.0004997253418 L 4.253405570983887 22.0004997253418 C 2.596495866775513 22.0004997253418 1.253705739974976 20.65769958496094 1.253705739974976 19.00079917907715 L 1.253705739974976 10.42109966278076 C 1.253705739974976 10.22379970550537 1.272775769233704 10.03094959259033 1.309125781059265 9.844269752502441 C 0.982255756855011 9.064379692077637 1.131065726280212 8.087639808654785 1.943095803260803 7.471799850463867 L 11.79179573059082 0.005399941932410002 C 12.14909553527832 -0.2655000686645508 12.57457065582275 -0.4009500443935394 13.00004577636719 -0.4009500443935394 C 13.42552089691162 -0.4009500443935394 13.85099601745605 -0.2655000686645508 14.20829582214355 0.005399941932410002 L 24.05700492858887 7.471799850463867 C 24.8690357208252 8.087639808654785 25.01783561706543 9.064379692077637 24.69097518920898 9.844269752502441 C 24.72731590270996 10.03096008300781 24.74640655517578 10.22379970550537 24.74640655517578 10.42109966278076 L 24.74640655517578 19.00079917907715 C 24.74640655517578 20.65769958496094 23.40360641479492 22.0004997253418 21.74669647216797 22.0004997253418 Z" stroke="none" fill="#f9f1e7"/>
  </g>
</svg>
